<?xml version="1.0" standalone="no"?><!DOCTYPE svg PUBLIC "-//W3C//DTD SVG 1.1//EN" "http://www.w3.org/Graphics/SVG/1.1/DTD/svg11.dtd"><svg t="1532676771144" class="icon" style="" viewBox="0 0 1024 1024" version="1.1" xmlns="http://www.w3.org/2000/svg" p-id="6495" xmlns:xlink="http://www.w3.org/1999/xlink" width="200" height="200"><defs><style type="text/css"></style></defs><path d="M925 811H99.5c-12 0.7-23.5-5.3-29.7-15.7-6.2-10.3-6.2-23.3 0-33.6s17.7-16.4 29.7-15.7H925c12-0.7 23.5 5.3 29.7 15.7 6.2 10.3 6.2 23.3 0 33.6-6.3 10.4-17.7 16.4-29.7 15.7zM925 534.7H99.5c-12 0.7-23.5-5.3-29.7-15.7-6.2-10.3-6.2-23.3 0-33.6s17.7-16.4 29.7-15.7H925c12-0.7 23.5 5.3 29.7 15.7 6.2 10.3 6.2 23.3 0 33.6-6.3 10.3-17.7 16.4-29.7 15.7zM925 279.7H99.5c-12 0.7-23.5-5.3-29.7-15.7-6.2-10.3-6.2-23.3 0-33.6s17.7-16.4 29.7-15.7H925c12-0.7 23.5 5.3 29.7 15.7 6.2 10.3 6.2 23.3 0 33.6-6.3 10.3-17.7 16.4-29.7 15.7z" p-id="6496"></path></svg>