<?xml version="1.0" standalone="no"?><!DOCTYPE svg PUBLIC "-//W3C//DTD SVG 1.1//EN" "http://www.w3.org/Graphics/SVG/1.1/DTD/svg11.dtd"><svg t="1533032529710" class="icon" style="" viewBox="0 0 1025 1024" version="1.1" xmlns="http://www.w3.org/2000/svg" p-id="3371" xmlns:xlink="http://www.w3.org/1999/xlink" width="200.1953125" height="200"><defs><style type="text/css"></style></defs><path d="M752.92 628.16q15.233 70.795 26.884 128.149 5.377 24.196 9.858 48.392t8.513 43.912 6.721 33.605 3.585 17.474q2.689 17.923-8.065 23.748t-24.196 5.825q-4.481 0-12.995-3.136t-12.995-4.928l-233.893-136.213q-63.626 37.638-115.602 67.211-22.404 12.546-44.359 25.092t-39.878 23.3-30.917 17.923-17.474 8.962q-8.962 4.481-18.371 3.136t-17.027-6.721-11.202-12.995-1.792-15.683q0.896-3.585 4.481-17.474t8.065-33.158 10.305-42.566 12.097-47.496q13.443-55.561 30.469-125.46-52.873-45.704-94.991-81.549-17.923-15.235-35.397-30.021t-31.365-26.884-22.852-19.715-9.858-8.513q-10.754-9.858-18.371-21.955t-5.825-24.644 9.858-19.715 17.923-8.962l276.908-25.092 103.057-240.165q5.377-14.338 15.235-24.644t26.884-10.305q8.962 0 15.683 4.033t11.202 9.41 7.617 10.754 4.928 8.962l100.368 240.165 276.908 25.988q17.923 4.481 25.092 10.754t7.169 19.715q0 12.546-7.617 21.955t-19.267 22.852z" p-id="3372"></path></svg>